# xmcd
#
# Track frame offsets:
#  150
#  11875
#  22775
#  37137
#  50887
#  62437
#  72700
#  83437
#  96212
#  107625
#  123887
#  137075
#  147800
#  164150
#  179137
#  191675
#  207912
#  220037
#
# Disc length: 3181 seconds
#
# Revision: 0
# Processed by: cddbd v1.4PL0 Copyright (c) Steve Scherf et al.
# Submitted via: AltoMP3_Maker 3.0
#
DISCID=0e0c6b12
DTITLE=Various Artist - Roadhouse Ballads
DYEAR=1900
DGENRE=
TTITLE0=Yesterday's Gone - Chad and Jeremy
TTITLE1=I'm Leaving It Up To You - Dale and Grace
TTITLE2=Young Girl - Gary Puckett and The Union Gap
TTITLE3=How Sweet It Is - Sam and Dave
TTITLE4=I't Just A Matter Of Time - Brook Benton
TTITLE5=Lavender Blue - Sammy Turner
TTITLE6=Young and In Love - Dick and Dee Dee
TTITLE7=You Belong To Me - The Duprees
TTITLE8=Mr Blue -  The Fleetwoods
TTITLE9=Drift Away - Dobie Gray
TTITLE10=Everlasting Love - Robert Knight
TTITLE11=Hurt - Timi Yuro
TTITLE12=Feelings - Dobie Gray
TTITLE13=(Your Love Keeps Lifting Me Higher)
TTITLE14=Since I Fell For You - Lenny Welch
TTITLE15=Without Love (There Is Nothing) - Jay Black
TTITLE16=Sweet Dreams Of You - Sandy Posey
TTITLE17=You've Lost That Lovin' Feelin - Timi Yuro
EXTD=
EXTT0=
EXTT1=
EXTT2=
EXTT3=
EXTT4=
EXTT5=
EXTT6=
EXTT7=
EXTT8=
EXTT9=
EXTT10=
EXTT11=
EXTT12=
EXTT13=
EXTT14=
EXTT15=
EXTT16=
EXTT17=
PLAYORDER=
